<svg xmlns="http://www.w3.org/2000/svg"  viewBox="0 0 48 48" width="48px" height="48px"><path d="M43.601 41.479c-.014-.015-.028-.029-.043-.043l-37-37C6.275 4.146 5.887 3.981 5.481 3.981c-.828 0-1.5.672-1.5 1.5 0 .405.164.793.455 1.076l4.417 4.417C5.836 14.473 4 19.017 4 24c0 11.046 8.954 20 20 20 4.983 0 9.527-1.835 13.025-4.854l4.411 4.411c.574.597 1.523.617 2.121.043C44.155 43.027 44.174 42.077 43.601 41.479zM24 41c-9.374 0-17-7.626-17-17 0-4.148 1.516-7.933 3.994-10.884l23.89 23.89C31.932 39.484 28.148 41 24 41zM24 7c9.374 0 17 7.626 17 17 0 3.118-.858 6.034-2.33 8.549l2.186 2.186C42.837 31.631 44 27.955 44 24c0-11.046-8.954-20-20-20-3.955 0-7.631 1.163-10.735 3.144l2.186 2.186C17.966 7.858 20.882 7 24 7z"/></svg>